<svg xmlns="http://www.w3.org/2000/svg" viewBox="0 0 24 24" fill="#3B82F6">
  <path d="M19 3L13 9L15 11L22 4V3H19M12 12.5C11.2 12.5 10.6 13.1 10.6 13.9C10.6 14.7 11.2 15.3 12 15.3C12.8 15.3 13.4 14.7 13.4 13.9C13.4 13.1 12.8 12.5 12 12.5M6 14C3.8 14 2 15.8 2 18S3.8 22 6 22C8.1 22 9.9 20.4 10 18.3L15.3 13C15.2 12.9 15.1 12.7 15 12.6L8.6 18H9C9.6 18 10 18.4 10 19C10 19.6 9.6 20 9 20C7.9 20 7 19.1 7 18C7 16.9 7.9 16 9 16C9.4 16 9.7 16.1 10 16.3L10.8 15.4C9.7 14.6 8.3 14 6 14M9.6 3H7L9 6L7 11H10L20 21L21 20L9.6 3Z" />
</svg>
